<?xml version="1.0" encoding="UTF-8" standalone="no"?>
<!-- Created with Inkscape (http://www.inkscape.org/) -->

<svg
   width="56.726665mm"
   height="75.776665mm"
   viewBox="0 0 56.726665 75.776665"
   version="1.1"
   id="svg1"
   xml:space="preserve"
   xmlns="http://www.w3.org/2000/svg"
   xmlns:svg="http://www.w3.org/2000/svg"
   xmlns:rdf="http://www.w3.org/1999/02/22-rdf-syntax-ns#"
   xmlns:cc="http://creativecommons.org/ns#"
   xmlns:dc="http://purl.org/dc/elements/1.1/"><title
     id="title52">Gopher Boyfriend (GophEngine mascot)</title><defs
     id="defs1" /><g
     id="layer4"
     style="display:inline"><g
       id="layer3"
       transform="matrix(0.79449314,0,0,0.77678801,8.3031626,-1.176596)"><ellipse
         style="opacity:1;fill:#6ad7e5;fill-opacity:1;stroke:#000000;stroke-width:0.499999;stroke-dasharray:none"
         id="path2"
         cx="47.0158"
         cy="27.073189"
         rx="4.7843866"
         ry="4.8993959" /><ellipse
         style="opacity:1;fill:#000000;fill-opacity:1;stroke:#000000;stroke-width:0.682299;stroke-dasharray:none"
         id="path3"
         cx="46.958935"
         cy="27.075418"
         rx="2.1761787"
         ry="2.2335556" /></g><g
       id="layer3-4"
       transform="matrix(0.79449314,0,0,0.77678801,-29.287736,-1.189457)"><ellipse
         style="opacity:1;fill:#6ad7e5;fill-opacity:1;stroke:#000000;stroke-width:0.499999;stroke-dasharray:none"
         id="path2-5"
         cx="47.0158"
         cy="27.073189"
         rx="4.7843866"
         ry="4.8993959" /><ellipse
         style="opacity:1;fill:#000000;fill-opacity:1;stroke:#000000;stroke-width:0.682299;stroke-dasharray:none"
         id="path3-5"
         cx="46.958935"
         cy="27.075418"
         rx="2.1761787"
         ry="2.2335556" /></g></g><g
     id="layer7"
     style="display:inline"><g
       id="g23"><path
         style="opacity:1;fill:#f6d2a2;fill-opacity:1;stroke:#000000;stroke-width:0.5;stroke-linecap:round;stroke-linejoin:round;stroke-dasharray:none"
         d="m 37.53658,66.967523 c 0.703734,-0.05366 0.920949,0.36036 1.212875,0.818607 0.291927,0.458247 0.65878,0.96096 0.952846,1.444751 0.294067,0.48379 0.516781,0.95103 0.664777,1.433881 0.147997,0.482852 0.221616,0.982448 0.233041,1.422687 0.01143,0.440239 -0.05287,0.926145 -0.222002,1.189617 -0.169134,0.263472 -0.472097,0.511733 -0.806245,0.650071 -0.334148,0.138338 -0.713116,0.178302 -1.038129,0.128103 -0.325013,-0.0502 -0.612917,-0.19892 -0.808631,-0.37312 -0.195714,-0.174199 -0.302609,-0.373304 -0.433752,-0.618031 -0.131142,-0.244727 -0.28507,-0.532351 -0.498913,-1.005147 -0.213843,-0.472796 -0.487759,-1.131188 -0.863757,-1.751276 -0.375998,-0.620089 -0.854147,-1.202078 -1.117219,-1.569667 -0.263071,-0.367589 -0.311053,-0.520762 0.260061,-0.85807 0.571115,-0.337309 1.761314,-0.858745 2.465048,-0.912406 z"
         id="path22" /><path
         style="opacity:1;fill:#f6d2a2;fill-opacity:1;stroke:#000000;stroke-width:0.25;stroke-linecap:round;stroke-linejoin:round;stroke-dasharray:none"
         d="m 39.389843,74.00065 c 0,0 0.446485,-0.859896 -0.165364,-1.5875"
         id="path23" /><g
         id="layer27"><path
           style="fill:#0066cc;fill-opacity:1;stroke:#000000;stroke-width:0.5;stroke-linecap:round;stroke-linejoin:round;stroke-dasharray:none;stroke-opacity:1"
           d="m 38.154395,66.849119 1.800729,2.069669 -4.151029,1.987817 -1.531789,-2.701093 z"
           id="path57" /><path
           style="fill:#0066cc;fill-opacity:1;stroke:#000000;stroke-width:0.499999;stroke-linecap:round;stroke-linejoin:round;stroke-dasharray:none;stroke-opacity:1"
           d="m 39.399704,68.398447 -3.911322,1.88258"
           id="path58" /><path
           style="fill:#0f1b82;fill-opacity:1;stroke:#000000;stroke-width:0;stroke-linecap:round;stroke-linejoin:round;stroke-dasharray:none;stroke-opacity:0"
           d="m 38.529947,67.41914 0.284545,0.304506 c 0,0 -0.358661,0.221146 -1.71128,0.847787 -1.352619,0.626639 -2.07031,0.748396 -2.07031,0.748396 l -0.207121,-0.371067 z"
           id="path59" /><path
           style="fill:#0066cc;fill-opacity:0;stroke:#000000;stroke-width:0.5;stroke-linecap:round;stroke-linejoin:round;stroke-dasharray:none;stroke-opacity:1"
           d="m 38.154395,66.849119 1.800729,2.069669 -4.151029,1.987817 -1.531789,-2.701093 z"
           id="path60" /></g></g><g
       id="g67"
       transform="matrix(-1,0,0,1,52.682249,-0.36380208)"><path
         style="opacity:1;fill:#f6d2a2;fill-opacity:1;stroke:#000000;stroke-width:0.5;stroke-linecap:round;stroke-linejoin:round;stroke-dasharray:none"
         d="m 37.53658,66.967523 c 0.703734,-0.05366 0.920949,0.36036 1.212875,0.818607 0.291927,0.458247 0.65878,0.96096 0.952846,1.444751 0.294067,0.48379 0.516781,0.95103 0.664777,1.433881 0.147997,0.482852 0.221616,0.982448 0.233041,1.422687 0.01143,0.440239 -0.05287,0.926145 -0.222002,1.189617 -0.169134,0.263472 -0.472097,0.511733 -0.806245,0.650071 -0.334148,0.138338 -0.713116,0.178302 -1.038129,0.128103 -0.325013,-0.0502 -0.612917,-0.19892 -0.808631,-0.37312 -0.195714,-0.174199 -0.302609,-0.373304 -0.433752,-0.618031 -0.131142,-0.244727 -0.28507,-0.532351 -0.498913,-1.005147 -0.213843,-0.472796 -0.487759,-1.131188 -0.863757,-1.751276 -0.375998,-0.620089 -0.854147,-1.202078 -1.117219,-1.569667 -0.263071,-0.367589 -0.311053,-0.520762 0.260061,-0.85807 0.571115,-0.337309 1.761314,-0.858745 2.465048,-0.912406 z"
         id="path61" /><path
         style="opacity:1;fill:#f6d2a2;fill-opacity:1;stroke:#000000;stroke-width:0.25;stroke-linecap:round;stroke-linejoin:round;stroke-dasharray:none"
         d="m 39.389843,74.00065 c 0,0 0.446485,-0.859896 -0.165364,-1.5875"
         id="path62" /><g
         id="g66"><path
           style="fill:#0066cc;fill-opacity:1;stroke:#000000;stroke-width:0.5;stroke-linecap:round;stroke-linejoin:round;stroke-dasharray:none;stroke-opacity:1"
           d="m 38.154395,66.849119 1.800729,2.069669 -4.151029,1.987817 -1.531789,-2.701093 z"
           id="path63" /><path
           style="fill:#0066cc;fill-opacity:1;stroke:#000000;stroke-width:0.499999;stroke-linecap:round;stroke-linejoin:round;stroke-dasharray:none;stroke-opacity:1"
           d="m 39.399704,68.398447 -3.911322,1.88258"
           id="path64" /><path
           style="fill:#0f1b82;fill-opacity:1;stroke:#000000;stroke-width:0;stroke-linecap:round;stroke-linejoin:round;stroke-dasharray:none;stroke-opacity:0"
           d="m 38.529947,67.41914 0.284545,0.304506 c 0,0 -0.358661,0.221146 -1.71128,0.847787 -1.352619,0.626639 -2.07031,0.748396 -2.07031,0.748396 l -0.207121,-0.371067 z"
           id="path65" /><path
           style="fill:#0066cc;fill-opacity:0;stroke:#000000;stroke-width:0.5;stroke-linecap:round;stroke-linejoin:round;stroke-dasharray:none;stroke-opacity:1"
           d="m 38.154395,66.849119 1.800729,2.069669 -4.151029,1.987817 -1.531789,-2.701093 z"
           id="path66" /></g></g></g><g
     id="layer9"
     transform="translate(-0.9921875,-0.9921875)"
     style="display:inline"><path
       style="opacity:1;fill:#f6d2a2;fill-opacity:1;stroke:#000000;stroke-width:0.499999;stroke-linecap:round;stroke-linejoin:round;stroke-dasharray:none"
       d="m 44.120457,40.926833 c 0.318325,-0.0222 0.95819,-0.06682 1.514358,-0.04725 0.556168,0.01957 1.033849,0.102977 1.512882,0.249566 0.479033,0.146589 0.963541,0.358162 1.418909,0.632268 0.455367,0.274106 0.889545,0.614627 1.265842,0.951412 0.376297,0.336785 0.698292,0.672724 0.916144,1.003967 0.217852,0.331243 0.335948,0.668212 0.280075,1.009514 -0.05587,0.341301 -0.263328,0.749881 -0.562475,1.053412 -0.299147,0.303531 -0.681361,0.497497 -0.995638,0.550213 -0.314277,0.05272 -0.643087,-0.08666 -1.011006,-0.32741 -0.367919,-0.240753 -0.817146,-0.600817 -1.253819,-0.897855 -0.436673,-0.297037 -0.860843,-0.531062 -1.238823,-0.685976 -0.377979,-0.154914 -0.725129,-0.23449 -1.082752,-0.289311 -0.357624,-0.05482 -0.741799,-0.08721 -1.027886,-0.18872 -0.286088,-0.101511 -0.584658,-0.353024 -0.517203,-0.810452 0.06746,-0.457428 0.265261,-1.3193 0.364165,-1.750237 0.0989,-0.430936 0.0989,-0.43094 0.417227,-0.45314 z"
       id="path18" /><path
       style="opacity:1;fill:#f6d2a2;fill-opacity:1;stroke:#000000;stroke-width:0.25;stroke-linecap:round;stroke-linejoin:round;stroke-dasharray:none"
       d="m 50.436198,45.566211 c 0,0 -0.173633,-0.768946 -1.240235,-1.016992"
       id="path20" /><path
       style="fill:#feebf7;fill-opacity:1;stroke:#000000;stroke-width:0.499999;stroke-linecap:round;stroke-linejoin:round;stroke-dasharray:none;stroke-opacity:1"
       d="m 46.103645,40.936002 1.894357,-0.01453 -0.724967,4.685635 -1.061901,-0.768501 z"
       id="path54" /><path
       style="fill:#db93e6;fill-opacity:1;stroke:#000000;stroke-width:0;stroke-linecap:round;stroke-linejoin:round;stroke-dasharray:none;stroke-opacity:0"
       d="m 46.728101,44.947578 -0.209056,-3.883338 -0.374178,0.02334 0.274789,3.741774 z"
       id="path56" /><path
       style="fill:#000000;fill-opacity:0;stroke:#000000;stroke-width:0.499999;stroke-linecap:round;stroke-linejoin:round;stroke-dasharray:none;stroke-opacity:1"
       d="m 46.103645,40.936002 1.894357,-0.01453 -0.724967,4.685635 -1.045365,-0.81811 z"
       id="path55" /></g><g
     id="layer1"
     transform="translate(-76.676255,-110.54292)"
     style="display:inline"><path
       style="opacity:1;fill:#6ad7e5;fill-opacity:1;stroke:#000000;stroke-width:0.5;stroke-dasharray:none"
       d="m 122.4048,140.40671 c -0.29795,3.9566 -0.83303,8.05587 -0.83843,12.401 -0.005,4.34513 0.52023,8.95226 0.47572,12.73972 -0.0445,3.78747 -0.67736,6.90108 -2.71672,9.25041 -2.03936,2.34933 -5.65606,4.14914 -9.62278,5.06083 -3.96672,0.9117 -8.37118,0.97212 -12.469327,0.0391 -4.098147,-0.933 -7.988286,-2.89811 -10.049451,-5.39289 -2.061166,-2.49478 -2.436269,-5.69579 -2.4314,-9.47724 0.0049,-3.78145 0.384277,-8.25011 0.345511,-12.47802 -0.03877,-4.22792 -0.494717,-8.24805 -0.704036,-12.19878 -0.209318,-3.95073 -0.172745,-7.84279 0.444986,-10.66052 0.617732,-2.81773 1.810504,-4.55547 3.67103,-6.27285 1.860527,-1.71738 4.350438,-3.37843 8.074832,-4.2433 3.724395,-0.86486 8.757635,-0.92891 12.814275,-0.008 4.05663,0.92075 7.3669,2.87194 9.47701,4.61903 2.11011,1.74709 3.03008,3.287 3.46059,5.99883 0.43051,2.71183 0.36615,6.66621 0.0682,10.62282 z"
       id="path1" /></g><g
     id="layer6"
     style="display:inline"><path
       style="opacity:1;fill:#ff6666;fill-opacity:1;stroke:#000000;stroke-width:0.480405;stroke-linecap:round;stroke-linejoin:round;stroke-dasharray:none"
       id="rect14"
       width="4.5195947"
       height="4.5195947"
       x="24.452047"
       y="32.461781"
       d="m 24.452047,32.461781 h 4.519595 v 2.331307 a 2.1882877,2.1882877 135 0 1 -2.188288,2.188287 h -0.18436 a 2.1469463,2.1469463 45 0 1 -2.146947,-2.146946 z"
       transform="matrix(1.0050424,0,0,0.90682679,-0.13469006,3.0030942)" /><path
       style="display:inline;opacity:1;fill:#ffffff;fill-opacity:1;stroke:#000000;stroke-width:0.2505;stroke-linecap:round;stroke-linejoin:round;stroke-dasharray:none"
       id="rect15"
       width="1.2495004"
       height="2.7495005"
       x="26.726404"
       y="32.903252"
       d="m 26.726404,32.903252 h 1.249501 v 2.200677 a 0.54882281,0.54882281 135 0 1 -0.548823,0.548823 h -0.08955 a 0.611125,0.611125 45 0 1 -0.611125,-0.611125 z"
       transform="matrix(0.70024693,0,0,0.70769973,8.0259118,9.5812181)" /><path
       style="display:inline;fill:#ffffff;fill-opacity:1;stroke:#000000;stroke-width:0.2505;stroke-linecap:round;stroke-linejoin:round;stroke-dasharray:none"
       id="rect15-1"
       width="1.2495004"
       height="2.7495005"
       x="25.463919"
       y="32.902863"
       d="m 25.463919,32.902863 h 1.2495 v 2.150982 a 0.59851823,0.59851823 135 0 1 -0.598518,0.598518 h -0.04278 a 0.60820174,0.60820174 45 0 1 -0.608201,-0.608202 z"
       transform="matrix(0.70024693,0,0,0.70769973,8.0259118,9.5812181)" /><path
       style="opacity:1;fill:#f6d2a2;fill-opacity:1;stroke:#000000;stroke-width:0.499999;stroke-linecap:round;stroke-linejoin:round;stroke-dasharray:none"
       d="m 28.546614,31.3354 c 0.08575,0.0097 0.257241,0.02923 0.454079,0.07406 0.196838,0.04482 0.418996,0.11498 0.604139,0.222169 0.185143,0.107188 0.333249,0.251396 0.432641,0.422897 0.09939,0.171502 0.150061,0.370275 0.161753,0.586601 0.01169,0.216325 -0.01559,0.450179 -0.103295,0.647015 -0.0877,0.196837 -0.235809,0.356638 -0.391718,0.448234 -0.155909,0.0916 -0.319608,0.114983 -0.496955,0.116933 -0.177348,0.0019 -0.367674,-0.01747 -0.598429,-0.08787 -0.230754,-0.0704 -0.496719,-0.189891 -0.977825,-0.258621 -0.481106,-0.06873 -1.162163,-0.08421 -1.64137,-0.02383 -0.479207,0.06039 -0.747076,0.194322 -1.025,0.271744 -0.277925,0.07742 -0.543008,0.09257 -0.743125,0.08095 -0.200118,-0.01162 -0.324839,-0.05059 -0.449568,-0.105162 -0.124728,-0.05457 -0.249449,-0.124726 -0.350788,-0.210474 -0.10134,-0.08575 -0.179293,-0.187087 -0.23776,-0.313765 -0.05847,-0.126679 -0.09744,-0.278679 -0.09939,-0.422896 -0.0019,-0.144217 0.03313,-0.280632 0.06626,-0.401462 0.03313,-0.120831 0.06431,-0.226063 0.140315,-0.348844 0.07601,-0.122781 0.19683,-0.263092 0.341045,-0.356637 0.144216,-0.09355 0.311816,-0.140317 0.47357,-0.177344 0.161753,-0.03703 0.317659,-0.06431 0.530087,-0.0799 0.212428,-0.01559 0.47542,-0.0194 1.136723,-0.03335 0.661303,-0.01394 1.62891,-0.03602 2.158881,-0.04811 0.529972,-0.01209 0.529975,-0.01209 0.529977,-0.01209 10e-7,1e-6 6e-6,1e-6 0.08576,0.0097 z"
       id="path13" /><path
       style="opacity:1;fill:#000000;fill-opacity:1;stroke:#000000;stroke-width:0;stroke-linecap:round;stroke-linejoin:round;stroke-dasharray:none"
       id="path11"
       d="m 28.681479,31.162542 c -0.01443,0.280207 -0.136323,0.539495 -0.335312,0.754833 -0.616424,0.667068 -2.442665,0.667058 -3.059111,1.55e-4 -0.212308,-0.229686 -0.336899,-0.509391 -0.336899,-0.811157 0,-0.321769 0.141655,-0.618454 0.380263,-0.856163 0.621216,-0.618878 2.350865,-0.618867 2.97209,-1.49e-4 0.224694,0.223786 0.36345,0.49986 0.378958,0.799932 0.0016,0.03111 0.0016,0.08156 1.1e-5,0.112549 z"
       transform="matrix(1.0308127,0,0,1.0786641,-0.87229251,-2.4350993)" /></g><g
     id="layer5"
     style="display:inline;fill:#ffffff;fill-opacity:1"><circle
       style="opacity:1;fill:#ffffff;fill-opacity:1;stroke:#000000;stroke-width:0.479875;stroke-dasharray:none"
       id="path4"
       cx="18.176283"
       cy="26.048433"
       r="5.7600622" /><ellipse
       style="opacity:1;fill:#000000;fill-opacity:1;stroke:#000000;stroke-width:0.735;stroke-dasharray:none"
       id="path5"
       cx="18.129187"
       cy="26.017193"
       rx="1.6323097"
       ry="1.6323094" /><circle
       style="opacity:1;fill:#ffffff;fill-opacity:1;stroke:#000000;stroke-width:0;stroke-dasharray:none"
       id="path6"
       cx="18.862925"
       cy="25.238716"
       r="0.5" /><path
       style="opacity:1;fill:#000000;fill-opacity:0;stroke:#000000;stroke-width:1.5;stroke-linecap:round;stroke-linejoin:round;stroke-dasharray:none"
       d="m 37.00999,22.081784 -7.153579,3.496283 c 0,0 1.05927,0.136161 3.818311,1.472118 2.185175,1.058085 2.96724,2.277185 2.96724,2.277185"
       id="path10" /></g><g
     id="layer17"
     style="display:inline"><path
       style="opacity:1;fill:#0066cc;fill-opacity:1;stroke:#000000;stroke-width:0.5;stroke-linecap:round;stroke-linejoin:round;stroke-dasharray:none"
       d="m 8.138357,52.431597 c 0,0 5.61266,3.274052 18.802412,2.853103 13.189749,-0.420949 18.381461,-2.38538 18.381461,-2.38538 0,0 0.46772,6.127155 -1.496711,9.72861 -1.96443,3.601458 -8.278672,7.436776 -17.118613,7.343232 C 17.866968,69.877616 13.751017,66.650337 12.113991,65.481032 10.476965,64.31173 8.8867116,62.019894 8.3722177,58.979701 7.8577241,55.939512 8.138357,52.431597 8.138357,52.431597 Z"
       id="path24" /><g
       id="layer19"><path
         style="opacity:1;fill:#000000;fill-opacity:0;stroke:#000000;stroke-width:0.499999;stroke-linecap:butt;stroke-linejoin:round;stroke-dasharray:none;stroke-opacity:1;paint-order:normal"
         d="m 26.052097,55.378246 c 0,0 0.257247,1.917658 0.304019,6.781964 0.04677,4.864304 -0.561266,7.881109 -0.561266,7.881109"
         id="path31" /><path
         style="fill:#000000;fill-opacity:0;stroke:#000000;stroke-width:0.499999;stroke-linecap:butt;stroke-linejoin:round;stroke-dasharray:none;stroke-opacity:1;paint-order:normal"
         d="m 26.864333,55.269259 c 0,0 0.257247,1.917658 0.304019,6.781964 0.04677,4.864304 -0.561266,7.881109 -0.561266,7.881109"
         id="path31-5" /><path
         style="opacity:1;fill:#0066cc;fill-opacity:1;stroke:#000000;stroke-width:0.5;stroke-linecap:butt;stroke-linejoin:round;stroke-dasharray:none;stroke-opacity:1;paint-order:normal"
         d="m 26.052097,55.413323 c 0,0 0.140316,0.140317 0.210474,2.116442 0.07016,1.976122 0.05847,2.139825 0.05847,2.139825 0,0 0.783433,0.09355 1.262848,-0.596344 0.479417,-0.68989 0.596347,-2.011204 0.596347,-2.654321 0,-0.643118 -0.01169,-1.087453 -0.01169,-1.087453 z"
         id="path32" /><path
         style="opacity:1;fill:#000000;fill-opacity:0;stroke:#000000;stroke-width:0.1;stroke-linecap:round;stroke-linejoin:round;stroke-dasharray:none;stroke-opacity:1;paint-order:normal"
         d="m 27.723372,55.802278 c 0,0 0.04233,0.132707 0.02339,0.440637 -0.01894,0.307931 -0.06473,0.419259 -0.06473,0.419259"
         id="path33" /><path
         style="opacity:1;fill:#000000;fill-opacity:0;stroke:#000000;stroke-width:0.1;stroke-linecap:round;stroke-linejoin:round;stroke-dasharray:none;stroke-opacity:1;paint-order:normal"
         d="m 27.442252,58.357161 c 0,0 -0.07125,0.215161 -0.188163,0.383763 -0.116911,0.168602 -0.30793,0.285963 -0.30793,0.285963"
         id="path34" /></g><g
       id="layer18"><path
         style="opacity:1;fill:#0f1b82;fill-opacity:0;stroke:#0f1b82;stroke-width:0.499999;stroke-linecap:butt;stroke-linejoin:round;stroke-dasharray:none;stroke-opacity:1;paint-order:normal"
         d="m 40.076106,54.239582 c 0,0 0.661458,-0.04961 2.530078,-0.463021 1.86862,-0.413411 2.621028,-0.719335 2.621028,-0.719335"
         id="path26" /><path
         style="fill:#0f1b82;fill-opacity:0;stroke:#0f1b82;stroke-width:0.5;stroke-linecap:butt;stroke-linejoin:round;stroke-dasharray:none;stroke-opacity:1"
         d="m 40.416741,54.034829 c 0,0 -0.0083,0.810287 1.876889,2.348177 1.885156,1.537891 2.943489,1.07487 2.943489,1.07487"
         id="path25-1-1" /><path
         style="opacity:1;fill:#0066cc;fill-opacity:0;stroke:#000000;stroke-width:0.499999;stroke-linecap:round;stroke-linejoin:round;stroke-dasharray:none"
         d="m 39.422916,54.239583 c 0,0 0.115755,1.620573 2.000912,3.158463 1.885156,1.537891 3.671093,1.07487 3.671093,1.07487"
         id="path25" /><path
         style="display:inline;fill:#0066cc;fill-opacity:0;stroke:#000000;stroke-width:0.499999;stroke-linecap:round;stroke-linejoin:round;stroke-dasharray:none"
         d="m 40.202082,54.142316 c 0,0 -0.08268,0.959115 1.802475,2.497005 1.885156,1.537891 3.158463,1.058334 3.158463,1.058334"
         id="path25-1" /></g><g
       id="g30"
       transform="matrix(-1,0,0,1,53.57599,0.22216779)"><path
         style="opacity:1;fill:#0f1b82;fill-opacity:0;stroke:#0f1b82;stroke-width:0.499999;stroke-linecap:butt;stroke-linejoin:round;stroke-dasharray:none;stroke-opacity:1;paint-order:normal"
         d="m 40.245655,54.146038 c 0,0 0.575693,-0.120785 2.413148,-0.655957 1.921238,-0.559574 2.813963,-1.134438 2.813963,-1.134438"
         id="path27" /><path
         style="fill:#0f1b82;fill-opacity:0;stroke:#0f1b82;stroke-width:0.5;stroke-linecap:butt;stroke-linejoin:round;stroke-dasharray:none;stroke-opacity:1"
         d="m 40.416741,54.034829 c 0,0 -0.0083,0.810287 1.876889,2.348177 1.885156,1.537891 2.943489,1.07487 2.943489,1.07487"
         id="path28" /><path
         style="opacity:1;fill:#0066cc;fill-opacity:0;stroke:#000000;stroke-width:0.499999;stroke-linecap:round;stroke-linejoin:round;stroke-dasharray:none"
         d="m 39.422916,54.239583 c 0,0 0.115755,1.620573 2.000912,3.158463 1.885156,1.537891 3.671093,1.07487 3.671093,1.07487"
         id="path29" /><path
         style="display:inline;fill:#0066cc;fill-opacity:0;stroke:#000000;stroke-width:0.499999;stroke-linecap:round;stroke-linejoin:round;stroke-dasharray:none"
         d="m 40.202082,54.142316 c 0,0 -0.08268,0.959115 1.802475,2.497005 1.885156,1.537891 3.158463,1.058334 3.158463,1.058334"
         id="path30" /></g><path
       style="display:inline;fill:#0066cc;fill-opacity:0;stroke:#000000;stroke-width:0.5;stroke-linecap:round;stroke-linejoin:round;stroke-dasharray:none"
       d="m 8.1381899,52.431983 c 0,0 5.6126601,3.274052 18.8024121,2.853103 13.189749,-0.420949 18.381461,-2.38538 18.381461,-2.38538 0,0 0.46772,6.127155 -1.496711,9.72861 -1.96443,3.601458 -8.278672,7.436776 -17.118613,7.343232 -8.839938,-0.09355 -12.955889,-3.320825 -14.592915,-4.49013 -1.637026,-1.169302 -3.2272801,-3.461138 -3.7417741,-6.501331 -0.514493,-3.040189 -0.23386,-6.548104 -0.23386,-6.548104 z"
       id="path24-7" /></g><g
     id="layer20"
     style="display:inline;fill:#000000;fill-opacity:0;stroke:#000000;stroke-opacity:1"><path
       style="display:inline;opacity:1;fill:#feebf7;fill-opacity:1;stroke:#000000;stroke-width:0.5;stroke-linecap:round;stroke-linejoin:round;stroke-dasharray:none;stroke-opacity:1;paint-order:normal"
       d="m 8.2319012,37.370961 c 0,0 4.9578498,1.590255 18.6153218,1.683798 13.657474,0.09354 18.147601,-1.496708 18.147601,-1.496708 0,0 -0.08414,4.326057 0.370851,7.443824 0.529855,3.630802 1.406488,7.546654 1.406488,7.546654 0,0 -12.022728,2.601613 -19.597538,2.642627 -7.431463,0.04024 -13.679789,-0.788881 -20.2444061,-3.366706 0,0 0.869896,-4.666725 1.0394465,-7.026686 0.24712,-3.439646 0.2622328,-7.426803 0.2622328,-7.426803 z"
       id="path35" /><g
       id="layer21"><ellipse
         style="opacity:1;fill:#000000;fill-opacity:0;stroke:#ff0000;stroke-width:0.999818;stroke-linecap:round;stroke-linejoin:round;stroke-dasharray:none;stroke-opacity:1;paint-order:normal"
         id="path36"
         cx="26.876442"
         cy="46.984779"
         rx="6.5"
         ry="6.5000916" /><path
         style="opacity:1;fill:#000000;fill-opacity:0;stroke:#ff0000;stroke-width:1;stroke-linecap:round;stroke-linejoin:round;stroke-dasharray:none;stroke-opacity:1;paint-order:normal"
         d="m 21.889374,42.819917 9.892312,8.395605"
         id="path37" /></g></g><g
     id="layer22"
     style="display:inline"><path
       style="opacity:1;fill:#ff2c31;fill-opacity:1;stroke:#000000;stroke-width:0.5;stroke-linecap:round;stroke-linejoin:round;stroke-dasharray:none;stroke-opacity:1;paint-order:normal"
       d="m 45.275458,17.878661 c 0,0 -5.706206,-0.947137 -7.156141,-1.22777 -1.449938,-0.280633 -6.87551,-1.169304 -6.87551,-1.169304 0,0 -8.933484,-0.514494 -11.926902,-0.280633 -2.993419,0.233861 -7.34323,1.309621 -7.34323,1.309621 L 15.633597,2.6192413 c 0,0 0.434426,-1.63289169 1.625332,-1.94104488 2.773251,-0.45908357 6.806988,-0.2854051 9.611681,-0.14031655 3.919554,0.20276103 9.325395,0.83840023 9.635066,0.98221553 0.414795,0.1926361 7.202913,5.6828183 7.202913,5.6828183 0,0 0.476827,0.3211747 0.923311,1.2306799 0.446485,0.9095052 0.446485,1.6867184 0.446485,1.6867184 z"
       id="path38" /><path
       style="opacity:1;fill:#ab154a;fill-opacity:1;stroke:#000000;stroke-width:0.499999;stroke-linecap:round;stroke-linejoin:round;stroke-dasharray:none;stroke-opacity:1;paint-order:normal"
       d="m 45.275457,17.878661 -0.23386,-7.354924 c 0,0 0.07016,-1.0056012 -0.233862,-1.8007278 C 44.503718,7.9278823 43.708589,7.1561414 43.708589,7.1561414 L 36.412133,1.5230187 c 0,0 -0.678199,0.6986592 -1.052375,1.2131531 -0.374177,0.5144937 -0.842144,1.0712504 -1.309621,2.0579753 -0.467477,0.9867249 -1.202338,2.5506059 -1.613638,3.9054759 -0.411301,1.35487 -1.403389,4.15466 -1.309622,6.781964 0,0 3.203892,0.42095 6.103768,0.958829 2.899873,0.53788 8.044812,1.438245 8.044812,1.438245 z"
       id="path39" /><g
       id="layer23"
       style="display:inline"><path
         style="opacity:1;fill:#0066cc;fill-opacity:1;stroke:#000000;stroke-width:0.5;stroke-linecap:round;stroke-linejoin:round;stroke-dasharray:none;stroke-opacity:1;paint-order:normal"
         d="m 45.260589,17.86823 c 0,0 1.605455,-0.447314 3.224306,-0.471876 2.615023,-0.03968 3.108854,0.115755 3.836459,0.214974 0.727604,0.09922 1.190624,0.148828 1.190624,0.148828 l 1.190625,0.214974 0.78934,-2.945858 c 0,0 -1.467334,-0.14646 -2.740642,-0.09685 -1.273307,0.04961 -2.629296,0.146822 -2.629296,0.146822 l -2.778125,0.183907 -2.138676,0.157928 z"
         id="path40" /><path
         style="fill:#0f1a82;fill-opacity:1;stroke:#000000;stroke-width:0.25;stroke-linecap:round;stroke-linejoin:round;stroke-dasharray:none;stroke-opacity:1;paint-order:normal"
         d="m 45.357088,17.843341 c 0,0 2.140083,-0.457589 3.12751,-0.447071 2.615176,0.02786 3.108854,0.115755 3.836459,0.214974 0.727604,0.09922 1.190624,0.148828 1.190624,0.148828 l 1.190625,0.214974 0.309925,-0.987161 c 0,0 -1.139929,-0.228311 -2.413237,-0.295631 -1.272495,-0.06728 -2.687761,-0.01688 -2.687761,-0.01688 l -2.626115,0.04359 -1.926539,0.02346 z"
         id="path40-8" /></g></g><g
     id="layer24"
     style="display:inline;stroke-width:0.5;stroke-dasharray:none"><path
       style="opacity:1;fill:#50a5eb;fill-opacity:1;stroke:#000000;stroke-width:0.5;stroke-linecap:round;stroke-linejoin:round;stroke-dasharray:none;stroke-opacity:1;paint-order:normal"
       d="m 45.930266,24.83602 -5.846519,-6.688419 c 0,0 -0.165486,0.332348 -0.982216,1.473323 -0.519438,0.725657 -1.169304,1.496709 -1.169304,1.496709 0,0 -0.806051,-1.997885 -1.020232,-2.55662 -0.337389,-0.880147 -1.172587,-2.300592 -1.172587,-2.300592 l 9.652979,1.629933 c 0,0 0.584652,2.736171 0.537879,3.905476 -0.04677,1.169304 0,3.04019 0,3.04019 z"
       id="path41" /><path
       style="display:inline;opacity:1;fill:#66ffff;fill-opacity:1;stroke:#000000;stroke-width:0;stroke-linecap:round;stroke-linejoin:round;stroke-dasharray:none;stroke-opacity:1;paint-order:normal"
       d="m 36.460094,17.237839 2.033985,0.322461 0.611849,2.141471 c 0,0 -0.355534,0.611849 -0.545704,0.868164 -0.190169,0.256315 -0.694531,0.603581 -0.694531,0.603581 0,0 -0.479557,-1.612304 -0.768945,-2.331641 -0.171762,-0.426952 -0.636654,-1.604036 -0.636654,-1.604036 z"
       id="path43" /><path
       style="opacity:1;fill:#000000;fill-opacity:0;stroke:#000000;stroke-width:0.5;stroke-linecap:round;stroke-linejoin:round;stroke-dasharray:none;stroke-opacity:1;paint-order:normal"
       d="m 45.930266,24.83602 -5.823132,-6.688419 c 0,0 -0.165487,0.332348 -0.982217,1.473323 -0.519438,0.725657 -1.19269,1.496709 -1.19269,1.496709 0,0 -0.799202,-2.030958 -1.013383,-2.589693 -0.337389,-0.880147 -1.179436,-2.290906 -1.179436,-2.290906 l 9.652979,1.65332 c 0,0 0.584652,2.736171 0.537879,3.905476 -0.04677,1.169304 0,3.04019 0,3.04019 z"
       id="path42" /><path
       style="fill:#50a5eb;fill-opacity:1;stroke:#000000;stroke-width:0.5;stroke-linecap:round;stroke-linejoin:round;stroke-dasharray:none"
       d="m 35.757321,16.229941 c 0,0 -1.683801,1.122532 -2.478927,2.666013 -0.795126,1.543482 -1.473321,3.22728 -1.473321,3.22728 L 30.331748,15.4582 c 0,0 -6.976071,0.938873 -11.427199,2.107786 -2.667114,0.700412 -5.092069,1.29799 -7.987812,3.032812 -3.3718081,2.02003 -4.7602377,4.236818 -4.7602377,4.236818 0,0 -0.233157,-3.002642 1.9003501,-6.811999 1.162371,-2.075402 3.4491026,-4.833867 3.4491026,-4.833867 0,0 -1.226369,-0.467276 -3.7885449,0.374177 -1.9191661,0.63028 -3.6716148,1.637026 -3.6716148,1.637026 0,0 2.1435486,-3.875516 5.0993411,-6.8065248 C 12.424731,5.1423294 13.938105,5.098166 13.938105,5.098166 c 0,0 3.623612,0.4250107 5.244185,0.6234482 1.620573,0.1984375 3.373438,0.7276042 3.373438,0.7276042 0,0 0.06615,-1.4552083 0.859895,-2.9104166 0.79375,-1.4552082 1.885156,-2.2158852 1.885156,-2.2158852 0,0 0.0078,3.2230897 2.554408,7.5556415 2.546615,4.3325519 7.902134,7.3513829 7.902134,7.3513829 z"
       id="path7" /><path
       style="display:inline;fill:#66ffff;fill-opacity:1;stroke:#000000;stroke-width:0;stroke-linecap:round;stroke-linejoin:round;stroke-dasharray:none;stroke-opacity:0"
       d="m 6.4122143,24.079999 c 0,0 -0.1160918,-2.745219 1.5719248,-5.829168 1.5042474,-2.74821 3.5218129,-5.084467 3.5218129,-5.084467 0,0 -1.777342,-0.420949 -3.8587032,0.350791 -2.0813614,0.771741 -3.4377539,1.566868 -3.4377539,1.566868 0,0 2.4321523,-4.41997 4.5135137,-6.3376284 C 10.80437,6.8287359 11.716427,6.0336091 12.722029,5.4723431 13.72763,4.9110772 14.312282,5.121552 14.312282,5.121552 c 0,0 3.297438,0.3741771 4.490128,0.5612659 1.19269,0.1870887 3.648229,0.7015824 3.648229,0.7015824 0,0 0.327405,-1.73057 0.935443,-2.8063299 0.608038,-1.0757596 1.949815,-2.231909 1.949815,-2.231909 0,0 -0.580819,1.3162084 -0.911548,3.0856094 -0.33073,1.769401 0.04961,3.9191406 0.04961,3.9191406 C 22.523051,7.9290904 21.434213,7.6548962 18.396032,7.2557603 15.357852,6.8566243 14.32254,7.0270775 13.189752,7.0976762 L 7.0625972,12.581713 c 0,0 1.4399296,-0.521396 2.7829438,-0.584652 3.763361,-0.177254 4.622218,0.389539 4.622218,0.389539 0,0 -3.401522,3.707392 -4.5634884,5.606964 -1.2003348,1.962296 -3.4920563,6.086435 -3.4920563,6.086435 z"
       id="path9" /><path
       style="fill:#000000;fill-opacity:0;stroke:#000000;stroke-width:0.5;stroke-linecap:round;stroke-linejoin:round;stroke-dasharray:none"
       d="m 35.757321,16.229941 c 0,0 -1.683801,1.122532 -2.478927,2.666013 -0.795126,1.543482 -1.473321,3.22728 -1.473321,3.22728 L 30.331748,15.4582 c 0,0 -6.976071,0.938873 -11.427199,2.107786 -2.667114,0.700412 -5.092069,1.29799 -7.987812,3.032812 -3.3718081,2.02003 -4.7602377,4.236818 -4.7602377,4.236818 0,0 -0.3689544,-2.535833 1.8892446,-6.776088 1.8260125,-3.428732 3.4602081,-4.869778 3.4602081,-4.869778 0,0 -1.226369,-0.467276 -3.7885449,0.374177 -1.9191661,0.63028 -3.6716148,1.637026 -3.6716148,1.637026 0,0 2.1435486,-3.875516 5.0993411,-6.8065248 C 12.424731,5.1423294 13.938105,5.098166 13.938105,5.098166 c 0,0 3.623612,0.4250107 5.244185,0.6234482 1.620573,0.1984375 3.373438,0.7276042 3.373438,0.7276042 0,0 0.06615,-1.4552083 0.859895,-2.9104166 0.79375,-1.4552082 1.885156,-2.2158852 1.885156,-2.2158852 0,0 0.0019,3.2113966 2.548561,7.5439484 2.546615,4.332552 7.907981,7.363076 7.907981,7.363076 z"
       id="path8" /></g><g
     id="layer25"
     style="display:inline"><path
       style="display:inline;fill:#343545;fill-opacity:1;stroke:#000000;stroke-width:0.5;stroke-linecap:round;stroke-linejoin:round;stroke-dasharray:none;stroke-opacity:1"
       d="m 19.231901,40.646614 -4.812109,5.622396 -1.604037,-1.157552 3.571875,-6.581511 c 0,0 0.314193,1.058334 0.959115,1.488282 0.644922,0.429948 1.885156,0.628385 1.885156,0.628385 z"
       id="path48" /><path
       style="display:inline;fill:#485e84;fill-opacity:1;stroke:#000000;stroke-width:0;stroke-linecap:round;stroke-linejoin:round;stroke-dasharray:none;stroke-opacity:0"
       d="m 17.049089,43.060937 -4.200261,1.967838 1.537891,1.157553 z"
       id="path50" /><path
       style="display:inline;fill:#000000;fill-opacity:0;stroke:#000000;stroke-width:0.5;stroke-linecap:round;stroke-linejoin:round;stroke-dasharray:none;stroke-opacity:1"
       d="m 19.231901,40.646614 -4.812109,5.622396 -1.604037,-1.157552 3.571875,-6.581511 c 0,0 0.314193,1.058334 0.959115,1.488282 0.644922,0.429948 1.885156,0.628385 1.885156,0.628385 z"
       id="path49" /><g
       id="layer26"
       style="display:inline"><circle
         style="display:inline;fill:#485e84;fill-opacity:1;stroke:#000000;stroke-width:0.49977;stroke-linecap:round;stroke-linejoin:round;stroke-dasharray:none;stroke-opacity:1"
         id="path12"
         cx="19.05345"
         cy="37.921547"
         r="2.7501149" /><ellipse
         style="display:inline;fill:#8fbbbe;fill-opacity:1;stroke:#000000;stroke-width:0;stroke-linecap:round;stroke-linejoin:round;stroke-dasharray:none;stroke-opacity:0"
         id="path47"
         cx="19.085968"
         cy="35.986797"
         rx="0.35663781"
         ry="0.36102265" /><ellipse
         style="display:inline;fill:#8fbbbe;fill-opacity:1;stroke:#000000;stroke-width:0;stroke-linecap:round;stroke-linejoin:round;stroke-dasharray:none;stroke-opacity:0"
         id="path46"
         cx="18.493961"
         cy="36.79155"
         rx="0.15296224"
         ry="0.14676107" /><path
         style="display:inline;fill:#343545;fill-opacity:1;stroke:#000000;stroke-width:0;stroke-linecap:round;stroke-linejoin:round;stroke-dasharray:none;stroke-opacity:0"
         d="m 17.551256,35.745629 c -0.131608,0.650076 -0.0169,1.130677 0.119887,1.571746 0.136788,0.441069 0.387119,1.185211 0.970718,1.478631 0.583599,0.29342 1.103247,0.200335 1.616951,0.123939 0.513703,-0.0764 0.908691,-0.183783 1.420087,-0.332913 -0.244336,0.618045 -0.555155,1.24551 -1.078774,1.674113 -0.421963,0.306043 -0.970898,0.364743 -1.478322,0.352934 -0.521812,-0.03201 -1.055087,-0.137511 -1.515827,-0.392943 -0.513923,-0.333797 -0.877164,-0.85997 -1.12933,-1.4094 -0.190148,-0.557835 -0.219776,-1.1908 -0.01364,-1.748942 0.242432,-0.52216 0.672715,-0.930982 1.088253,-1.317167 z"
         id="path14" /><path
         style="display:inline;fill:#000000;fill-opacity:0;stroke:#000000;stroke-width:0.499999;stroke-linecap:round;stroke-linejoin:round;stroke-dasharray:none;stroke-opacity:1"
         d="m 20.959961,35.933724 c 0,0 0.07441,0.983919 -0.405143,2.348177 -0.479558,1.364257 -1.149284,2.339908 -1.149284,2.339908"
         id="path19" /><path
         style="display:inline;fill:#000000;fill-opacity:0;stroke:#000000;stroke-width:0.499999;stroke-linecap:round;stroke-linejoin:round;stroke-dasharray:none;stroke-opacity:1"
         d="m 20.083529,35.421093 c 0,0 -0.200588,1.07975 -0.75241,2.356445 -0.570955,1.320965 -1.355989,2.587956 -1.355989,2.587956"
         id="path44" /><path
         style="display:inline;fill:#000000;fill-opacity:0;stroke:#000000;stroke-width:0.499999;stroke-linecap:round;stroke-linejoin:round;stroke-dasharray:none;stroke-opacity:1"
         d="m 19.273242,35.24746 c 0,0 -0.8847,0.967383 -1.480012,1.86862 -0.595313,0.901237 -0.975652,2.356446 -0.975652,2.356446"
         id="path45" /><path
         style="display:inline;fill:#000000;fill-opacity:0;stroke:#000000;stroke-width:0.5;stroke-linecap:round;stroke-linejoin:round;stroke-dasharray:none;stroke-opacity:1"
         d="m 17.18138,35.983333 c 0,0 1.331186,0.107486 2.463933,0.744141 1.132747,0.636654 2.108398,1.281575 2.108398,1.281575"
         id="path15" /><path
         style="display:inline;fill:#000000;fill-opacity:0;stroke:#000000;stroke-width:0.499999;stroke-linecap:round;stroke-linejoin:round;stroke-dasharray:none;stroke-opacity:1"
         d="m 16.470312,37.388932 c 0,0 1.324191,0.173704 2.57142,0.843359 1.247229,0.669656 2.017448,1.496549 2.017448,1.496549"
         id="path16" /><circle
         style="display:inline;fill:#000000;fill-opacity:0;stroke:#000000;stroke-width:0.49977;stroke-linecap:round;stroke-linejoin:round;stroke-dasharray:none;stroke-opacity:1"
         id="circle14"
         cx="19.05345"
         cy="37.921547"
         r="2.7501149" /></g></g><g
     id="layer9-2"
     transform="matrix(-1,0,0,1,54.137978,-2.0824107)"><path
       style="fill:#f6d2a2;fill-opacity:1;stroke:#000000;stroke-width:0.5;stroke-linecap:round;stroke-linejoin:round;stroke-dasharray:none;stroke-opacity:1"
       d="m 45.937732,41.859159 c -1.306549,-0.05975 -2.616283,-0.491613 -4.122305,-0.346998 -1.506022,0.144616 -3.035161,0.737817 -3.661248,1.266138 -0.626087,0.528321 -0.364733,1.534572 -0.107955,1.885021 0.256773,0.350448 0.577046,0.997061 1.291508,0.939877 0.714462,-0.05718 1.425969,-0.581484 2.726766,-0.77958 1.300797,-0.198096 2.642748,-2.16e-4 3.979721,0.170893 -0.02671,-1.340165 -0.08871,-2.207976 -0.106491,-3.135362 z"
       id="path51" /><path
       style="opacity:1;fill:#f6d2a2;fill-opacity:1;stroke:#000000;stroke-width:0.25;stroke-linecap:round;stroke-linejoin:round;stroke-dasharray:none"
       d="m 39.600202,43.900779 c 0,0 -0.761334,-0.204445 -1.477559,0.62392"
       id="path52" /><path
       style="fill:#feebf7;fill-opacity:1;stroke:#000000;stroke-width:0.5;stroke-linecap:round;stroke-linejoin:round;stroke-dasharray:none;stroke-opacity:1"
       d="m 45.899106,41.853871 -1.808876,-0.487512 -0.113505,3.815673 2.038601,-0.162068 z"
       id="path53" /></g><metadata
     id="metadata1"><rdf:RDF><cc:Work
         rdf:about=""><dc:title>Gopher Boyfriend (GophEngine mascot)</dc:title><dc:creator><cc:Agent><dc:title>Matúš Ollah</dc:title></cc:Agent></dc:creator></cc:Work></rdf:RDF></metadata></svg>
